<svg version="1.2" xmlns="http://www.w3.org/2000/svg" viewBox="0 0 816 818" width="816" height="818">
	<style>
		.s1 { fill: #ffffff }
	</style>
	<g id="Layer 1">
		<g id="Folder 1">
			<g id="&lt;Group&gt;">
				<path id="&lt;Path&gt;" class="s1" d="m348.41 242.86c0-6.62 5.38-12 12-12h46.8v167.6c0 1.16-1.46 1.64-2.16 0.72l-56.64-81.14v-75.2z"/>
				<path id="&lt;Path&gt;" class="s1" d="m591.79 271.74l2.96 226.92-184.24-266.04-47.8-2.06 0.72 50.58 212.76 317.86 76-1.38c6.64 0.06 12.08-5.3 12.1-9.96l1.24-347.62c0.04-11.94-7.32-13.6-15.24-7.6l-58.5 37.32v1.98z"/>
			</g>
			<path id="&lt;Path&gt;" class="s1" d="m240.59 221.5l169 262.02v-61.12c0-1.2 1.56-1.66 2.2-0.66l56.6 70.22v81.6c0 6.62-5.38 12-12 12h-2.34v0.36l-53.8-0.06-178.22-266.04 2.96 238.92-58.5 37.32c-7.92 6-15.28 2.32-15.24-7.6l1.24-357.62c0.02-6.64 5.44-12 12.1-11.96l76 0.62v2z"/>
		</g>
	</g>
</svg>
